<?xml version="1.0" encoding="UTF-8"?>
<svg id="Layer_2" data-name="Layer 2" xmlns="http://www.w3.org/2000/svg" viewBox="0 0 589.13 550.2">
  <defs>
    <style>
      .cls-1 {
        fill: #fbb03c;
      }

      .cls-1, .cls-2 {
        stroke-width: 0px;
      }

      .cls-2 {
        fill: #010101;
      }
    </style>
  </defs>
  <g id="publicdomainvectors.org">
    <g>
      <path class="cls-1" d="M359.26,218.6c-6.5,1.89-12.34,4.09-17.38,6.56l106.42-190.22c13.24,7.41,25.95,15.98,37.8,25.47l-126.84,158.19ZM274.09,2.9c-15.08,2.21-30.08,5.7-44.58,10.38l63.34,196.19c4.24,1.33,8.27,2.75,12.06,4.24L274.09,2.9ZM421.56,21.84c-14.04-5.96-28.67-10.78-43.5-14.32l-51.72,216.68c2.74,1.73,5.12,3.45,7.12,5.15L421.56,21.84ZM348.84,2.2c-9.77-1.24-19.82-1.96-29.53-2.15-5.23-.1-10.53-.05-15.74.14l8.17,216.34c3.36,1.49,6.47,3.03,9.32,4.58L348.84,2.2ZM201.72,23.95c-13.86,6.2-27.3,13.61-39.95,22.03l104.4,156.96c6.04,1.09,11.85,2.39,17.39,3.85L201.72,23.95ZM244.18,541.24c14.69,3.85,29.83,6.5,45,7.87l7.85-86.95-30.35-6.69-22.5,85.77ZM87.55,118.94c-8.65,12.53-16.3,25.87-22.75,39.65l104.52,48.9c11.96-3.68,24.09-5.98,36.09-7.18l-117.86-81.37ZM39.35,260.06c-.18,3.27-.3,6.58-.36,9.84-.22,11.81.32,23.72,1.6,35.41l28.64-3.15c10.42-13.19,21.1-26.68,30.79-38.82l-60.66-3.29ZM131.85,224.37c4.21-2.6,8.5-4.95,12.83-7.09l-91.02-31.06c-4.91,14.4-8.65,29.33-11.11,44.37l74.05,12.1c6.22-7.69,11.34-13.91,14.72-17.86l.53-.45ZM252.28,200.86L138.06,63.66c-11.64,9.69-22.55,20.42-32.44,31.89l120.37,103.75c9,0,17.81.56,26.29,1.56M553.52,245.45l-.24.41.43,3.16.87-1.47,1.93,1.15-2.31,3.9.35,2.61.54-.92,1.92,1.16-1.06,1.75,32.48-2.39c-1.12-15.17-3.51-30.34-7.11-45.08l-69.71,17.03c13.54,4.67,26.94,10.48,39.87,17.57l2.04,1.12ZM557.88,279.73l.3,2.18.85.54-.64,1.02.74,5.47.41.26-.31.48,1.02,7.5,18.08-.11,2.25,13.09-7.95,13.12,11.92,2.21c1.98-10.67,3.34-21.58,4.04-32.42.28-4.24.46-8.53.53-12.74l-31.24-.59ZM572.68,181.18c-5.2-14.29-11.62-28.24-19.11-41.47l-126.5,71.6c15.25.5,31.31,2.25,47.61,5.5l98-35.62ZM537.61,114.76c-8.83-12.3-18.75-23.96-29.49-34.64l-134.38,135.02c8.89-1.72,18.62-2.93,28.96-3.53l134.91-96.85ZM53.51,363.53c10.59-2.82,20.62-4.97,30.1-6.52-9.65,1.17-19.79,3-30.41,5.6.1.3.21.61.31.91M318.56,550.2c15.19-.24,30.44-1.75,45.34-4.49l-13.18-71.71-33.5-7.39,1.34,83.59ZM205.31,460.07l-30.75,52.2c13.14,7.74,27.03,14.43,41.29,19.88l22.14-57.95c-.94.09-1.91.16-2.92.19-15.74.41-24.89-7.22-29.76-14.32M392.81,538.76c14.6-4.36,28.95-9.99,42.64-16.72l-16.21-32.93-44.16-9.73,17.73,59.39ZM454.55,496.88l6.75,10.65c12.78-8.11,24.99-17.34,36.28-27.45l-11.94-13.33-19.79,32.63-11.3-2.49ZM133.1,449.19l-17.32,16.66c10.5,10.91,21.98,21.03,34.12,30.06l35.29-47.42c-12.45-.1-31.22.21-52.09.7M560.71,397.05c6.76-13.66,12.41-27.98,16.8-42.56l-20.13-6.06-21.91,36.13,25.24,12.49ZM518.54,459.17c10.15-11.27,19.42-23.46,27.57-36.23l-24.45-15.59-21.42,35.34,18.31,16.49Z"/>
      <path class="cls-2" d="M578.34,297.07l-18.08.11h-1.01s.8-1.23.8-1.23l-1.89-1.22-106.47,166.09-.65,1.01.57.68.17.2,106.88-164.61.5,3.7-.49-.32-107.26,165.77-.85,1.31.62.65.15-.23,108.16-164.67.62,4.53-.94-.62-107.91,162.41-2.03,3.05-1.36-.26.15-.78-213.82-41.95c10.1-1.23,206.11,35.66,213.36,40.11l1.58-1.6c-3.93-3.88-197.29-40.6-214.31-40.78,5.06-1.54,39.74,2.32,106.84,14.71,55.77,10.3,104.61,21.38,107.53,24.27l.95-1.9c-7.29-7.2-186.27-40.51-212.69-39.59-.59.02-1.1.06-1.58.11,1.1-.32,2.99-.65,6.28-.76,40.58-1.41,197.77,29.46,206.47,38.06l1.58-1.6c-10.07-9.95-171.53-39.98-208.13-38.71-2.17.08-3.83.25-5.11.47,1.96-.66,5.31-1.28,11.06-1.48,47.95-1.67,190.02,26.59,201.14,37.58l1.58-1.6c-12.81-12.66-156.85-39.82-202.79-38.23-4.12.14-7.4.5-9.9,1.09,3-1.14,8.1-2.14,16.75-2.43,54.93-1.91,181.54,24.2,194.92,37.42l1.58-1.6c-14.76-14.59-145.19-39.85-196.57-38.07-6.49.22-11.55.84-15.26,1.87,4.11-1.66,11.03-3.1,22.64-3.5,55.59-1.92,171.65,21.25,188.16,37.56l1.58-1.6c-16.77-16.57-133.86-40.13-189.81-38.2-9.1.32-16.21,1.29-21.29,2.91,6.22-2.71,16-4.35,28.92-4.8,58.01-2,162.98,19.98,181.16,37.94l1.43-1.45.14-.14s-.09-.08-.13-.12c-18.82-18.23-124.4-40.49-182.68-38.47-11.74.41-20.86,1.76-27.33,4.04,7.65-3.51,19.46-5.61,34.93-6.14,59.81-2.06,154.22,18.83,174.18,38.55l1.03-1.05.54-.55c-.16-.16-.33-.31-.5-.47-21.27-19.89-115.54-40.79-175.33-38.73-14.36.5-25.51,2.28-33.38,5.31,9.07-4.39,22.87-6.98,40.74-7.6,59.93-2.08,146,18.15,167.44,39.34l.63-.64.95-.96c-.28-.27-.57-.55-.87-.82-23.13-21.22-108.6-41.23-168.22-39.16-12.71.44-28.15,2.09-39.51,6.89,10.48-5.44,26.25-8.63,46.5-9.33,59.74-2.07,138.03,17.52,161.08,40.29l.23-.23,1.13-1.14.33.96,102.55-165.62,1.32-2.13-1.76-1.09-.15-.1-102.27,167.55c-.34-.33-.68-.65-1.04-.98-24.84-22.62-102.26-41.81-161.49-39.76-14.28.49-31.75,2.46-44.78,8.31,11.86-6.41,29.25-10.13,51.29-10.89,58.19-2,130.52,17.23,155.02,41.22.05.05.11.1.16.15l1.58-1.6c-.51-.51-1.06-1.01-1.61-1.52-26.15-23.71-97.62-42.49-155.23-40.5-15.19.52-33.81,2.7-48.29,9.2,13.23-6.98,31.82-11.11,54.29-11.88,56.47-1.96,123.16,16.87,149.27,42.05.18.17.36.34.53.51l.49-1.84c-.3-.3-.61-.59-.93-.89-26.74-25.35-92.71-44.02-149.45-42.08-16.24.56-36.26,3.03-52.22,10.53,14.44-7.87,34.2-12.49,57.68-13.31,54.83-1.9,116.38,16.53,144.06,42.98.3.28.61.56.9.85l.68-2.18c-.47-.46-.97-.92-1.46-1.38-28.29-26.53-89.25-44.41-144.25-42.51-20.74.72-38.66,4.39-52.7,10.64.5-.36,1-.73,1.5-1.09,15-7.35,34.14-11.64,56.15-12.4,52.36-1.81,110.53,16.63,139.34,43.98.42.4.86.8,1.27,1.2l.49-1.93c-.54-.53-1.11-1.05-1.66-1.58-29.3-27.53-86.85-45.74-139.52-43.92-16.28.56-31.02,3.04-43.75,7.25,5.05-2.19,10.48-4.23,16.25-6.03,9.87-2.34,20.58-3.74,31.97-4.14,50.87-1.75,104.77,16.28,135.12,45.04.55.52,1.11,1.04,1.64,1.56l1.58-1.6c-1-.99-2.04-1.97-3.09-2.93-31.01-28.36-84.7-46.05-135.32-44.31-1.04.04-2.07.08-3.1.14.38-.05.76-.1,1.14-.15,32.02-3.86,81.17-.12,134.13,39.31.45.33.89.65,1.34.99l1.87,1.41,1.33-1.92c8.18-11.78,93.63-155.76,97.26-161.88l.94-1.59.25-.41-2.04-1.12c-12.93-7.09-26.33-12.9-39.87-17.57-12.28-4.23-24.67-7.52-36.93-9.96-16.3-3.25-32.37-5-47.61-5.5-8.4-.27-16.55-.16-24.36.3-10.34.6-20.06,1.81-28.96,3.53-5.12.99-9.97,2.15-14.49,3.47-6.5,1.89-12.34,4.09-17.38,6.56-2.93,1.43-5.6,2.96-7.97,4.56-.14-.12-.3-.25-.44-.38-2-1.7-4.38-3.42-7.12-5.15-1.63-1.03-3.4-2.06-5.27-3.08-2.85-1.55-5.96-3.09-9.32-4.58-2.17-.97-4.46-1.91-6.82-2.84-3.79-1.48-7.82-2.91-12.06-4.24-3-.94-6.1-1.84-9.29-2.68-5.54-1.46-11.35-2.76-17.39-3.85-4.51-.82-9.15-1.51-13.89-2.07-8.49-1-17.3-1.56-26.29-1.56-6.78,0-13.65.32-20.58,1.01-12,1.2-24.13,3.5-36.09,7.18-8.33,2.56-16.58,5.81-24.64,9.79-4.34,2.14-8.62,4.49-12.83,7.09l-.53.45c-3.39,3.95-8.5,10.17-14.72,17.87-4.93,6.1-10.57,13.12-16.59,20.66-9.68,12.13-20.37,25.62-30.79,38.82-27.32,34.61-52.78,67.16-53.27,67.78l-2.88,3.68,1.09,1.47,4.06-1.56c-.91.7-1.69,1.39-2.35,2.07-.56.58-1.03,1.15-1.4,1.71l1.88,1.23c1.13-1.73,3.49-3.65,6.88-5.62,2.48-1.44,5.52-2.91,9.06-4.35,7.15-2.33,14.11-4.3,20.88-5.96,10.62-2.61,20.76-4.43,30.41-5.6,40.97-4.98,73.14,1.75,95.43,10.05,8.58,3.2,16.18,6.79,22.78,10.4,3.32,2.01,6.58,4.2,9.75,6.57-35.39-24.04-82.05-26.54-110.13-25.38-42.43,1.76-80.87,13.42-86.91,22.67l1.88,1.23c4.95-7.59,40.58-19.81,85.12-21.66,28.69-1.18,76.97,1.46,112.19,27.39-34.53-22.98-82.79-25.19-111.91-23.98-43.25,1.79-81.72,12.57-87.23,21.01l1.88,1.23c4.5-6.89,40.02-18.11,85.44-19.99,29.86-1.24,80.06,1.13,114.2,26.14-33.57-22.04-83.78-23.97-114.12-22.72-43.97,1.82-82.38,11.72-87.36,19.35l1.88,1.23c4.04-6.19,39.38-16.41,85.57-18.32,30.91-1.29,82.69.74,115.63,24.27-32.53-20.57-84.38-22.15-115.81-20.85-44.53,1.84-82.78,10.85-87.22,17.67l1.88,1.23c3.5-5.37,39.36-14.74,85.44-16.65,26.16-1.09,84.55-.52,117.87,22.82-33.13-20.26-91.71-20.49-118.39-19.39-41.06,1.7-82.4,9.32-86.75,15.99l1.88,1.23c3.05-4.68,38.5-13.04,84.96-14.97,27.33-1.14,88.5-.89,120.25,21.06-31.78-18.86-93.28-18.77-121.22-17.62-41.88,1.73-81.99,8.41-85.82,14.29l1.88,1.23c2.61-4.01,37.46-11.35,84.03-13.28,28.61-1.18,92.77-1.28,122.82,19.07-30.39-17.27-95.13-16.82-124.5-15.6-41.6,1.73-80.94,7.6-84.19,12.58l1.88,1.23c2.17-3.33,36.15-9.65,82.4-11.57,30.17-1.25,98.01-1.73,126.13,17.01-28.84-15.65-97.66-14.81-128.8-13.52-36.97,1.53-78.57,6.25-81.57,10.85l1.88,1.23c2.28-3.11,46.07-9.64,99.98-10.39,53.92-.76,92.74,4.72,109.68,15.2-28.85-14.15-108.21-12.18-134.26-11.1-30.31,1.26-74.14,4.88-77.19,9.01-.01.02-.03.04-.04.05l.05.03,1.8,1.23c3.85-3.92,84.97-11.62,149.25-7.9,30.84,1.77,52.04,5.95,62.13,12.15-26.93-12.41-114.53-9.92-143.06-8.74-22.73.94-65.82,3.59-69.89,6.97-.09.08-.18.16-.23.24l.25.19,1.53,1.15c3.07-2.38,51.99-6.67,104.17-7.26,57.67-.65,96.5,3.26,108.85,10.82-26.91-11.14-142.79-6.72-156.93-6.14-16.11.67-52.85,2.44-57.41,4.9-.2.11-.34.22-.42.33l.45.29,1.06.69-.94,1.28-15.57,21.1,1.4,8.81s73.89-2.86,131.7-4.23c20.87-.5,39.64-.8,52.09-.7,9.01.07,14.71.35,15.49.91.2,1.9,1.56,6.18,4.64,10.67,4.86,7.1,14.02,14.73,29.75,14.32,1.01-.03,1.98-.1,2.92-.19,20.77-2.05,25.09-19.52,25.09-19.52l3.59.79,30.35,6.69,20.19,4.45,33.5,7.39,24.36,5.37,44.16,9.73,35.31,7.78,11.3,2.49,19.79-32.63,14.59-24.06,21.42-35.34,13.81-22.78,21.91-36.13,15.25-25.15,7.95-13.12-2.25-13.09ZM17.68,428.48l-.13-1.92c7.72-1.26,55.42-3.44,106.52-3.98,62.86-.66,102.99,1.43,108.24,5.61-20.68-4.95-185.75-.99-207.09-.11-3.79.16-6.1.27-7.53.39M123.94,428.23c96.41-1.03,107.58,1.49,108.62,2.21l.07.09-214.66,2.16-.14-1.97c8.76-.68,54.58-1.95,106.1-2.49M63.22,434.48l-45.07.75-.02-.3,45.09-.46ZM282.7,323.51l.04.05s-.07.04-.1.07l.07-.11ZM547.28,247.17c-10.18,17.14-82.03,138.11-94.61,157.66-51.19-37.9-98.94-43.21-131.65-40.28,1.27-.18,2.54-.35,3.81-.5,10.29-1.19,20.74-1.54,31.14-.65-10.31-1.64-20.83-2.05-31.33-1.59-10.5.5-20.99,2.05-31.24,4.71-5.54,1.43-11,3.2-16.36,5.25,7.36-3.85,15.06-7.12,23.03-9.69,9.75-3.16,19.86-5.3,30.13-6.43,10.26-1.1,20.67-1.37,31.03-.41-10.26-1.71-20.74-2.2-31.2-1.83-10.46.4-20.92,1.83-31.17,4.34-5.82,1.43-11.56,3.22-17.19,5.33,7.6-3.92,15.57-7.2,23.82-9.75,9.75-3.02,19.85-5.04,30.09-6.08,10.23-1.01,20.61-1.2,30.92-.17-10.21-1.77-20.65-2.35-31.07-2.07-10.42.3-20.86,1.6-31.1,3.98-6.06,1.41-12.05,3.2-17.92,5.35,7.8-3.99,16.03-7.23,24.5-9.75,9.75-2.89,19.84-4.78,30.05-5.73,10.21-.92,20.54-1.03,30.81.06-10.17-1.83-20.55-2.49-30.94-2.31-10.39.21-20.8,1.38-31.03,3.62-6.25,1.37-12.43,3.13-18.5,5.3,7.95-4.04,16.38-7.2,25.03-9.67,9.75-2.76,19.82-4.53,30-5.38,10.18-.84,20.48-.86,30.7.29-10.12-1.89-20.46-2.63-30.81-2.54-10.35.11-20.73,1.16-30.96,3.26-6.42,1.33-12.79,3.04-19.02,5.21,8.08-4.08,16.69-7.14,25.5-9.55,9.75-2.62,19.8-4.28,29.96-5.04,10.15-.75,20.41-.69,30.59.51-10.07-1.94-20.37-2.77-30.68-2.75-10.31.02-20.66.95-30.88,2.91-6.57,1.29-13.12,2.95-19.52,5.11,8.21-4.07,16.97-7.12,25.94-9.43,9.75-2.49,19.79-4.03,29.91-4.7,10.12-.67,20.35-.53,30.48.72-10.02-1.99-20.28-2.9-30.55-2.97-10.27-.07-20.6.74-30.8,2.56-6.79,1.22-13.54,2.87-20.15,5.05,8.39-4.09,17.34-7.15,26.52-9.36,9.75-2.36,19.77-3.78,29.86-4.37,10.1-.59,20.28-.37,30.37.93-9.97-2.04-20.18-3.02-30.42-3.18-10.24-.16-20.53.54-30.71,2.21-7.03,1.15-14.01,2.79-20.83,5.01,8.6-4.08,17.75-7.19,27.15-9.29,9.75-2.22,19.75-3.54,29.81-4.04,10.07-.51,20.21-.21,30.27,1.13-9.93-2.08-20.1-3.14-30.29-3.38-10.2-.24-20.46.33-30.63,1.87-7.3,1.08-14.56,2.74-21.66,5.02,8.84-4.12,18.27-7.2,27.93-9.27,9.74-2.09,19.72-3.3,29.76-3.72,10.04-.43,20.14-.06,30.16,1.33-9.88-2.12-20.01-3.25-30.16-3.57-10.16-.33-20.38.14-30.54,1.54-7.56,1.04-15.07,2.68-22.42,4.98,9.06-4.14,18.75-7.17,28.64-9.21,9.74-1.98,19.7-3.06,29.71-3.41,10.01-.35,20.07.1,30.05,1.52-9.84-2.15-19.92-3.36-30.04-3.76-10.12-.4-20.31-.06-30.45,1.22-7.83,1.02-15.63,2.63-23.26,4.94.42-.19.84-.39,1.27-.58,8.94-3.88,18.45-6.66,28.16-8.55,9.72-1.9,19.67-2.86,29.64-3.13,9.98-.25,20.01.25,29.94,1.7-9.8-2.19-19.83-3.45-29.91-3.94-10.08-.48-20.24-.27-30.35.93-8.12.96-16.21,2.53-24.14,4.87.69-.3,1.37-.61,2.07-.9,8.96-3.74,18.48-6.36,28.19-8.13,9.71-1.76,19.63-2.67,29.58-2.85,9.95-.16,19.94.37,29.83,1.87-9.76-2.24-19.75-3.52-29.79-4.12-10.05-.57-20.16-.41-30.25.64-8.41.89-16.8,2.41-25.03,4.77.95-.41,1.91-.82,2.88-1.2,8.99-3.59,18.52-6.06,28.21-7.71,9.71-1.64,19.6-2.45,29.51-2.56,9.92-.09,19.87.48,29.73,2.02-9.71-2.27-19.67-3.6-29.67-4.27-10.01-.65-20.09-.58-30.15.35-8.67.81-17.34,2.27-25.84,4.62,1.2-.51,2.4-1,3.61-1.46,9.02-3.44,18.55-5.76,28.24-7.29,9.69-1.52,19.56-2.24,29.45-2.28,9.89-.02,19.81.6,29.62,2.17-9.67-2.31-19.58-3.68-29.55-4.42-9.97-.72-20.01-.75-30.05.06-8.93.73-17.86,2.11-26.63,4.46,1.43-.59,2.87-1.17,4.33-1.7,9.04-3.29,18.58-5.46,28.25-6.87,9.68-1.4,19.53-2.03,29.38-2,9.86.05,19.74.71,29.52,2.32-9.63-2.34-19.5-3.76-29.43-4.56-9.93-.78-19.94-.9-29.95-.22-9.21.64-18.44,1.96-27.52,4.31,1.7-.69,3.41-1.35,5.15-1.95,9.07-3.13,18.61-5.16,28.27-6.46,9.67-1.28,19.49-1.82,29.31-1.73,9.83.11,19.67.81,29.42,2.46-9.59-2.38-19.42-3.83-29.31-4.7-9.89-.85-19.86-1.06-29.84-.5-9.5.54-19.02,1.79-28.4,4.13,1.96-.78,3.95-1.51,5.96-2.17,9.09-2.98,18.64-4.86,28.29-6.04,9.66-1.17,19.45-1.62,29.25-1.47,9.79.18,19.61.92,29.31,2.59-9.55-2.41-19.35-3.9-29.19-4.83-9.85-.91-19.79-1.21-29.74-.77-7.06.32-14.14,1.02-21.18,2.25,45-11.51,118.84-8.14,181.94,25.69M180.85,362.95c-14.54-5.44-33.16-10.23-55.59-11.69-24.48-1.59-53.5.8-86.67,10.66,11.4-6.46,24.27-10.8,37.42-13.58,8.31-1.74,16.8-2.87,25.33-3.4,8.54-.53,17.14-.5,25.71.33-8.46-1.58-17.1-2.36-25.75-2.58-8.66-.21-17.35.17-26.01,1.22-3.99.48-7.98,1.11-11.94,1.89,6.16-2.17,12.52-3.91,18.95-5.28,8.34-1.76,16.85-2.91,25.41-3.45,8.56-.53,17.19-.51,25.78.43-8.47-1.68-17.15-2.46-25.83-2.68-8.69-.2-17.41.21-26.1,1.27-3.98.49-7.96,1.12-11.92,1.91,6.15-2.17,12.49-3.92,18.94-5.29,8.36-1.78,16.89-2.95,25.49-3.5,8.59-.53,17.25-.51,25.85.53-8.48-1.78-17.19-2.56-25.9-2.78-8.72-.19-17.47.24-26.18,1.32-3.98.5-7.96,1.14-11.91,1.93,6.15-2.17,12.5-3.93,18.93-5.31,8.39-1.8,16.95-2.99,25.56-3.55,8.62-.54,17.31-.52,25.93.63-8.49-1.89-17.24-2.67-25.98-2.87-8.75-.18-17.53.27-26.26,1.37-3.98.5-7.95,1.15-11.9,1.94,6.16-2.17,12.5-3.93,18.93-5.33,8.41-1.82,17-3.03,25.64-3.6,8.64-.54,17.36-.53,26,.72-8.5-1.99-17.28-2.77-26.05-2.97-8.78-.18-17.58.3-26.35,1.42-3.98.51-7.95,1.17-11.9,1.96,6.16-2.17,12.5-3.94,18.94-5.35,8.44-1.84,17.05-3.08,25.72-3.65,8.67-.54,17.42-.54,26.07.82-8.5-2.1-17.33-2.87-26.12-3.07-8.81-.17-17.64.33-26.43,1.47-3.98.52-7.94,1.18-11.89,1.98,6.16-2.18,12.5-3.95,18.94-5.37,8.46-1.86,17.1-3.12,25.8-3.7,8.69-.55,17.48-.55,26.14.92-8.51-2.2-17.37-2.97-26.19-3.16-8.84-.16-17.7.37-26.51,1.52-3.97.53-7.94,1.19-11.88,2,6.16-2.18,12.5-3.96,18.94-5.39,8.49-1.89,17.15-3.15,25.88-3.75,8.72-.56,17.54-.57,26.21,1.01-8.51-2.31-17.42-3.08-26.27-3.26-8.87-.15-17.76.39-26.6,1.57-3.97.53-7.93,1.21-11.88,2.01,6.16-2.18,12.51-3.97,18.94-5.41,8.51-1.91,17.2-3.19,25.95-3.8,8.74-.58,17.6-.58,26.28,1.1-8.51-2.42-17.46-3.18-26.34-3.35-8.9-.13-17.82.41-26.68,1.62-3.97.54-7.93,1.22-11.87,2.03,6.17-2.18,12.51-3.97,18.94-5.42,8.54-1.93,17.25-3.22,26.03-3.84,8.77-.59,17.66-.6,26.35,1.2-8.51-2.53-17.51-3.29-26.41-3.44-8.93-.12-17.87.44-26.76,1.66-3.97.55-7.93,1.23-11.87,2.05,6.17-2.18,12.51-3.98,18.94-5.44,8.57-1.95,17.31-3.25,26.11-3.89,8.79-.6,17.72-.63,26.42,1.29-8.51-2.65-17.55-3.39-26.48-3.53-8.95-.11-17.93.46-26.85,1.71-3.97.56-7.92,1.24-11.86,2.06,6.17-2.18,12.51-3.99,18.94-5.46,8.59-1.97,17.36-3.28,26.19-3.93,8.82-.6,17.78-.67,26.48,1.38-8.51-2.78-17.6-3.48-26.55-3.62-8.98-.09-17.99.49-26.93,1.76-3.96.56-7.91,1.25-11.84,2.08,6.17-2.18,12.51-3.99,18.93-5.47,8.62-1.99,17.41-3.32,26.27-3.98,8.84-.6,17.85-.7,26.55,1.47-8.5-2.9-17.64-3.58-26.62-3.72-9.01-.08-18.05.52-27.02,1.8-3.96.57-7.9,1.27-11.83,2.09,6.17-2.18,12.5-4,18.93-5.49,8.64-2.01,17.47-3.35,26.35-4.02,8.87-.6,17.91-.74,26.61,1.56-8.49-3.03-17.68-3.67-26.68-3.81-9.04-.07-18.11.54-27.1,1.85-3.95.57-7.89,1.28-11.81,2.11,6.17-2.18,12.5-4.01,18.92-5.51,8.67-2.02,17.52-3.38,26.43-4.07,8.89-.61,17.98-.78,26.68,1.65-8.49-3.16-17.72-3.77-26.75-3.9-9.07-.06-18.17.57-27.18,1.9-3.95.58-7.88,1.29-11.8,2.12,6.17-2.18,12.5-4.01,18.91-5.52,8.7-2.03,17.57-3.42,26.51-4.12,8.91-.61,18.05-.82,26.74,1.75-8.48-3.29-17.77-3.86-26.82-3.99-9.1-.05-18.22.61-27.27,1.94-3.94.59-7.88,1.3-11.79,2.13,6.17-2.19,12.49-4.02,18.91-5.53,8.72-2.04,17.62-3.46,26.59-4.16,8.94-.61,18.12-.87,26.81,1.84-8.46-3.43-17.81-3.95-26.88-4.08-9.13-.04-18.28.64-27.35,1.99-3.94.59-7.87,1.31-11.78,2.15,6.17-2.18,12.49-4.02,18.9-5.55,8.75-2.06,17.68-3.49,26.67-4.21,8.96-.61,18.19-.91,26.87,1.93-8.45-3.56-17.85-4.04-26.95-4.17-9.16-.03-18.34.68-27.44,2.04-8.51,1.29-16.96,3.13-25.29,5.62,73.4-30.47,154.31-.39,174.1,16.36l-95.85,162.51c-5.89-5.66-23.97-21.29-54.16-32.59M122.58,416.96c60.31-.65,99.29,2.37,108.61,8.34-21.89-7.65-137.6-4.87-179.47-3.14-22.39.92-30.95,1.65-34.33,2.22l-.13-1.91c6.37-1.84,54.28-4.95,105.32-5.5M512.18,404.24l-51.26,80.85-.29.45-.53-.1-102.06-19.16c-17-3.26-34-6.48-50.97-9.91l-25.44-5.22c-8.15-1.78-16.28-3.38-24.42-5.55-1.69,6.05-4.41,12.16-9.2,16.66-2.51,2.33-5.62,4.08-8.97,4.89-3.34.82-6.84.81-10.16.2-6.58-1.18-13.12-4.16-17.55-9.41-4.25-4.99-6.46-11.39-6.64-17.9l-98.68,2.67-99.48,2.32,99.45-3.5,99.46-3.13.83-.03v.88c.03,6.29,2.2,12.8,6.36,17.58,4.14,4.87,10.28,7.66,16.57,8.76,3.14.56,6.36.54,9.4-.21,3.04-.76,5.83-2.35,8.13-4.49,4.61-4.38,7.23-10.48,8.85-16.75l.24-.93.99.26c8.25,2.2,16.81,3.84,25.25,5.65l25.44,5.11,50.93,10.05,101.44,19.52,51.33-80.17,51.93-80.43-50.95,81.05ZM554.19,252.6l-97.42,164.21-1.26-1.23,98.2-166.55.87-1.47,1.93,1.15-2.31,3.9ZM555.09,254.29l1.92,1.16-1.06,1.75-.93,1.53-99.68,164.97.34-1.78,98.86-166.71.54-.92ZM555.6,261.03l1.91,1.17-1.65,2.7-101.11,165.3-.33-1.06,100.96-167.75.22-.35ZM557.22,274.89l1.31.82-.98,1.57-103.98,165.93-.33-1.48,103.39-167.21.6.37ZM558.18,281.91l.86.54-.64,1.02-105.42,166.23v-1.43s104.17-167.02,104.17-167.02l1.04.66ZM557.65,287.99l1.48.95.41.26-.31.48-106.86,166.52-.43-1.44-.02-.06.02-.04,105.7-166.67Z"/>
    </g>
  </g>
</svg>