<svg width="947" height="332" viewBox="0 0 947 332" fill="none" xmlns="http://www.w3.org/2000/svg">
<path d="M135.997 144.615C133.537 145.33 131.326 146.163 129.418 147.098L169.699 75.0983C174.71 77.903 179.521 81.1468 184.006 84.7388L135.997 144.615ZM103.76 62.971C98.0518 63.8075 92.3742 65.1285 86.8859 66.8999L110.86 141.159C112.465 141.662 113.991 142.2 115.425 142.764L103.76 62.971ZM159.578 70.1399C154.264 67.884 148.726 66.0596 143.113 64.7197L123.537 146.734C124.574 147.389 125.474 148.04 126.231 148.683L159.578 70.1399ZM132.053 62.7061C128.355 62.2367 124.551 61.9642 120.876 61.8923C118.896 61.8544 116.89 61.8733 114.918 61.9453L118.01 143.831C119.282 144.395 120.459 144.978 121.538 145.565L132.053 62.7061ZM76.3672 70.9385C71.1211 73.2853 66.034 76.09 61.246 79.277L100.762 138.687C103.048 139.1 105.247 139.592 107.344 140.144L76.3672 70.9385ZM92.4385 266.735C97.9988 268.193 103.729 269.196 109.471 269.714L112.443 236.803L100.955 234.271L92.4385 266.735ZM33.1533 106.893C29.8792 111.635 26.9837 116.685 24.5423 121.9L64.1037 140.409C68.6306 139.016 73.2218 138.146 77.7639 137.692L33.1533 106.893ZM14.9094 160.307C14.8412 161.545 14.7958 162.798 14.7731 164.032C14.6898 168.502 14.8942 173.01 15.3787 177.435L26.2191 176.242C30.1631 171.25 34.2056 166.144 37.8733 161.549L14.9132 160.304L14.9094 160.307ZM49.9211 146.799C51.5146 145.814 53.1384 144.925 54.7773 144.115L20.3258 132.359C18.4673 137.809 17.0517 143.46 16.1206 149.153L44.1489 153.733C46.5032 150.822 48.4411 148.468 49.7205 146.973L49.9211 146.802V146.799ZM95.5044 137.9L52.2716 85.969C47.8658 89.6367 43.7363 93.698 39.9929 98.0395L85.5535 137.309C88.9601 137.309 92.2947 137.521 95.5044 137.9ZM209.525 154.777L209.434 154.933L209.597 156.129L209.926 155.572L210.657 156.008L209.783 157.484L209.915 158.472L210.12 158.123L210.846 158.562L210.445 159.225L222.739 158.32C222.315 152.578 221.41 146.836 220.048 141.257L193.662 147.703C198.787 149.471 203.859 151.67 208.753 154.353L209.525 154.777ZM211.176 167.753L211.289 168.578L211.611 168.782L211.369 169.168L211.649 171.239L211.804 171.337L211.687 171.519L212.073 174.357L218.916 174.316L219.768 179.27L216.759 184.236L221.27 185.073C222.02 181.034 222.534 176.905 222.799 172.802C222.905 171.197 222.974 169.573 223 167.98L211.176 167.756V167.753ZM216.777 130.451C214.809 125.042 212.379 119.762 209.544 114.754L161.663 141.855C167.436 142.044 173.514 142.707 179.684 143.937L216.777 130.455V130.451ZM203.503 105.311C200.161 100.655 196.406 96.2416 192.341 92.1992L141.478 143.305C144.843 142.654 148.525 142.196 152.439 141.969L203.503 105.311ZM20.269 199.471C24.2774 198.404 28.0738 197.59 31.662 197.003C28.0094 197.446 24.1714 198.139 20.1517 199.123C20.1895 199.237 20.2311 199.354 20.269 199.467M120.592 270.127C126.341 270.036 132.113 269.464 137.753 268.427L132.764 241.285L120.085 238.488L120.592 270.127ZM77.7261 236.012L66.087 255.77C71.0606 258.7 76.318 261.232 81.7155 263.295L90.0956 241.36C89.7398 241.394 89.3727 241.421 88.9904 241.432C83.0327 241.588 79.5694 238.7 77.7261 236.012ZM148.696 265.797C154.222 264.146 159.653 262.015 164.835 259.468L158.7 247.004L141.985 243.321L148.696 265.8V265.797ZM172.065 249.945L174.62 253.976C179.457 250.906 184.078 247.413 188.352 243.586L183.832 238.541L176.342 250.891L172.065 249.949V249.945ZM50.3942 231.894L43.8385 238.2C47.8128 242.329 52.158 246.16 56.7531 249.578L70.1105 231.629C65.3981 231.591 58.2936 231.709 50.3942 231.894ZM212.247 212.159C214.805 206.988 216.944 201.568 218.606 196.05L210.986 193.756L202.693 207.431L212.247 212.159ZM196.285 235.671C200.127 231.406 203.636 226.792 206.721 221.958L197.466 216.057L189.359 229.434L196.289 235.675L196.285 235.671Z" fill="#FBB03C"/>
<path d="M218.92 174.316L212.076 174.357H211.694L211.997 173.892L211.281 173.43L170.982 236.296L170.736 236.678L170.952 236.936L171.016 237.011L211.471 174.706L211.66 176.106L211.475 175.985L170.876 238.73L170.554 239.226L170.789 239.472L170.846 239.385L211.785 177.056L212.02 178.771L211.664 178.536L170.819 240.009L170.051 241.164L169.536 241.065L169.593 240.77L88.661 224.892C92.4839 224.426 166.675 238.389 169.419 240.074L170.017 239.468C168.529 237.999 95.3416 224.101 88.8995 224.032C90.8147 223.45 103.941 224.911 129.339 229.6C150.448 233.499 168.934 237.693 170.04 238.787L170.399 238.067C167.64 235.342 99.895 222.734 89.8949 223.082C89.6716 223.09 89.4786 223.105 89.2969 223.124C89.7133 223.003 90.4286 222.878 91.6739 222.836C107.034 222.303 166.531 233.987 169.824 237.242L170.422 236.637C166.61 232.871 105.497 221.504 91.6436 221.985C90.8223 222.015 90.194 222.079 89.7095 222.163C90.4513 221.913 91.7193 221.678 93.8957 221.602C112.045 220.97 165.819 231.667 170.028 235.827L170.626 235.221C165.778 230.429 111.258 220.149 93.8692 220.751C92.3098 220.804 91.0683 220.94 90.122 221.163C91.2575 220.732 93.1879 220.353 96.462 220.244C117.253 219.521 165.176 229.403 170.24 234.407L170.838 233.802C165.251 228.279 115.883 218.718 96.4355 219.392C93.979 219.475 92.0638 219.71 90.6595 220.1C92.2152 219.471 94.8344 218.926 99.2289 218.775C120.27 218.048 164.199 226.818 170.448 232.992L171.046 232.386C164.699 226.114 120.38 217.197 99.2024 217.927C95.758 218.048 93.0668 218.415 91.144 219.029C93.4983 218.003 97.2001 217.382 102.09 217.212C124.047 216.455 163.779 224.774 170.66 231.572L171.202 231.023L171.255 230.97C171.255 230.97 171.221 230.94 171.205 230.925C164.082 224.025 124.119 215.599 102.06 216.364C97.6164 216.519 94.1645 217.03 91.7155 217.893C94.6111 216.565 99.0813 215.77 104.937 215.569C127.575 214.789 163.31 222.696 170.865 230.16L171.255 229.763L171.459 229.555C171.398 229.494 171.334 229.438 171.27 229.377C163.219 221.848 127.537 213.938 104.906 214.717C99.4711 214.907 95.2508 215.58 92.2719 216.727C95.705 215.066 100.928 214.085 107.692 213.851C130.376 213.063 162.954 220.721 171.069 228.741L171.308 228.499L171.667 228.135C171.561 228.033 171.451 227.927 171.338 227.825C162.583 219.793 130.232 212.219 107.666 213.003C102.855 213.169 97.0108 213.794 92.711 215.611C96.6777 213.552 102.647 212.344 110.311 212.079C132.923 211.296 162.557 218.711 171.281 227.329L171.368 227.242L171.796 226.811L171.921 227.174L210.736 164.486L211.236 163.68L210.57 163.267L210.513 163.229L171.803 226.648C171.675 226.523 171.546 226.402 171.41 226.277C162.008 217.715 132.704 210.452 110.285 211.228C104.88 211.413 98.2675 212.159 93.3355 214.373C97.8246 211.947 104.407 210.539 112.749 210.251C134.774 209.494 162.152 216.773 171.425 225.853C171.444 225.872 171.467 225.891 171.485 225.91L172.084 225.304C171.89 225.111 171.682 224.922 171.474 224.729C161.576 215.755 134.524 208.646 112.719 209.399C106.969 209.596 99.9215 210.421 94.4408 212.882C99.4484 210.24 106.485 208.677 114.99 208.385C136.364 207.643 161.606 214.77 171.489 224.301C171.557 224.366 171.626 224.43 171.69 224.494L171.875 223.798C171.762 223.684 171.644 223.574 171.523 223.461C161.402 213.866 136.432 206.799 114.956 207.533C108.809 207.745 101.231 208.68 95.1902 211.519C100.656 208.54 108.135 206.792 117.022 206.481C137.776 205.762 161.073 212.738 171.55 222.749C171.663 222.855 171.781 222.961 171.89 223.071L172.148 222.246C171.97 222.072 171.781 221.898 171.595 221.724C160.887 211.682 137.814 204.914 116.996 205.633C109.146 205.906 102.363 207.295 97.0487 209.661C97.2379 209.524 97.4272 209.384 97.6164 209.248C103.294 206.466 110.539 204.842 118.869 204.555C138.688 203.869 160.706 210.849 171.61 221.201C171.769 221.353 171.936 221.504 172.091 221.655L172.277 220.925C172.072 220.724 171.856 220.528 171.648 220.327C160.558 209.907 138.775 203.014 118.839 203.703C112.677 203.915 107.098 204.854 102.28 206.447C104.191 205.618 106.246 204.846 108.43 204.165C112.166 203.279 116.22 202.749 120.531 202.598C139.786 201.935 160.187 208.76 171.675 219.646C171.883 219.842 172.095 220.039 172.295 220.236L172.894 219.63C172.515 219.256 172.121 218.885 171.724 218.521C159.986 207.787 139.665 201.091 120.505 201.75C120.111 201.765 119.721 201.78 119.331 201.803C119.475 201.784 119.619 201.765 119.763 201.746C131.882 200.285 150.486 201.701 170.532 216.625C170.702 216.75 170.869 216.871 171.039 217L171.747 217.534L172.25 216.807C175.346 212.348 207.689 157.851 209.063 155.534L209.419 154.933L209.514 154.777L208.742 154.353C203.848 151.67 198.776 149.471 193.651 147.703C189.003 146.102 184.313 144.857 179.673 143.933C173.503 142.703 167.42 142.041 161.652 141.851C158.472 141.749 155.388 141.791 152.432 141.965C148.518 142.192 144.839 142.65 141.47 143.301C139.532 143.676 137.696 144.115 135.985 144.615C133.525 145.33 131.315 146.163 129.407 147.098C128.298 147.639 127.287 148.218 126.39 148.824C126.337 148.778 126.277 148.729 126.224 148.68C125.467 148.036 124.566 147.385 123.529 146.73C122.912 146.341 122.242 145.951 121.534 145.565C120.455 144.978 119.278 144.395 118.007 143.831C117.185 143.464 116.318 143.108 115.425 142.756C113.991 142.196 112.465 141.655 110.86 141.151C109.725 140.795 108.551 140.455 107.344 140.137C105.247 139.584 103.048 139.092 100.762 138.68C99.0548 138.369 97.2985 138.108 95.5044 137.896C92.2909 137.518 88.9562 137.306 85.5535 137.306C82.9872 137.306 80.3869 137.427 77.7638 137.688C73.2218 138.142 68.6305 139.013 64.1036 140.406C60.9507 141.375 57.828 142.605 54.7772 144.111C53.1345 144.921 51.5145 145.811 49.921 146.795L49.7204 146.965C48.4373 148.46 46.5031 150.814 44.1488 153.729C42.2828 156.038 40.148 158.695 37.8694 161.549C34.2055 166.14 30.1593 171.246 26.2153 176.242C15.8745 189.342 6.23776 201.663 6.05229 201.897L4.9622 203.29L5.37477 203.847L6.9115 203.256C6.56706 203.521 6.27183 203.782 6.02201 204.04C5.81005 204.259 5.63215 204.475 5.49211 204.687L6.2037 205.153C6.63141 204.498 7.52468 203.771 8.80781 203.025C9.7465 202.48 10.8972 201.924 12.2371 201.379C14.9434 200.497 17.5778 199.751 20.1403 199.123C24.16 198.135 27.998 197.446 31.6506 197.003C47.1579 195.118 59.3344 197.666 67.7713 200.807C71.0189 202.019 73.8955 203.377 76.3937 204.744C77.6503 205.505 78.8842 206.334 80.0841 207.231C66.6888 198.131 49.0278 197.185 38.3993 197.624C22.3394 198.29 7.78963 202.704 5.50346 206.205L6.21505 206.67C8.08865 203.798 21.5748 199.172 38.4334 198.472C49.2927 198.025 67.5669 199.025 80.8979 208.839C67.8281 200.141 49.5614 199.305 38.5394 199.763C22.169 200.44 7.60795 204.521 5.52239 207.715L6.23398 208.181C7.93725 205.573 21.3817 201.326 38.5734 200.614C49.8756 200.145 68.8766 201.042 81.7987 210.508C69.0923 202.166 50.0876 201.436 38.6037 201.909C21.9609 202.598 7.42248 206.345 5.53753 209.233L6.24912 209.698C7.77828 207.356 21.1546 203.487 38.6378 202.764C50.3374 202.276 69.9364 203.044 82.4043 211.951C70.0916 204.165 50.4661 203.567 38.5697 204.059C21.7148 204.755 7.23702 208.166 5.55645 210.747L6.26804 211.212C7.59281 209.18 21.166 205.633 38.6075 204.91C48.5092 204.498 70.6101 204.714 83.2219 213.548C70.682 205.879 48.5092 205.792 38.4107 206.209C22.8693 206.852 7.22188 209.736 5.57538 212.261L6.28697 212.727C7.44141 210.955 20.8594 207.791 38.4448 207.06C48.7893 206.629 71.9424 206.723 83.96 215.032C71.9311 207.893 48.653 207.927 38.0776 208.362C22.2258 209.017 7.04398 211.546 5.5943 213.771L6.30589 214.237C7.29379 212.719 20.4847 209.941 38.1117 209.21C48.9407 208.764 73.2256 208.726 84.5996 216.428C73.0969 209.892 48.5925 210.062 37.4758 210.524C21.73 211.178 6.83959 213.4 5.60944 215.285L6.32103 215.751C7.14239 214.49 20.004 212.098 37.5098 211.371C48.9293 210.898 74.6071 210.717 85.2507 217.81C74.3346 211.886 48.2859 212.204 36.4992 212.692C22.5059 213.272 6.7601 215.058 5.62458 216.799L6.33617 217.265C7.19917 216.088 23.7739 213.616 44.1791 213.332C64.5881 213.044 79.2817 215.119 85.6935 219.085C74.7737 213.73 44.7355 214.475 34.8754 214.884C23.403 215.361 6.81309 216.731 5.65865 218.294C5.65486 218.302 5.64729 218.309 5.64351 218.313L5.66243 218.325L6.34374 218.79C7.80099 217.306 38.5053 214.392 62.8356 215.8C74.5087 216.47 82.533 218.052 86.3521 220.399C76.159 215.702 43.002 216.644 32.2032 217.091C23.5998 217.446 7.29001 218.45 5.74949 219.729C5.71543 219.759 5.68136 219.789 5.66243 219.82L5.75706 219.892L6.33617 220.327C7.49818 219.426 26.0146 217.802 45.765 217.579C67.5934 217.333 82.2908 218.813 86.9653 221.674C76.7797 217.458 32.9186 219.131 27.5665 219.35C21.4688 219.604 7.56253 220.274 5.83655 221.205C5.76085 221.247 5.70786 221.288 5.67757 221.33L5.8479 221.44L6.24912 221.701L5.89332 222.185L0 230.172L0.529907 233.506C0.529907 233.506 28.4976 232.424 50.379 231.905C58.2784 231.716 65.3829 231.603 70.0953 231.64C73.5057 231.667 75.6631 231.773 75.9584 231.985C76.0341 232.704 76.5488 234.324 77.7146 236.023C79.5542 238.711 83.0213 241.599 88.9752 241.444C89.3575 241.432 89.7246 241.406 90.0804 241.372C97.9419 240.596 99.5771 233.983 99.5771 233.983L100.936 234.282L112.424 236.815L120.066 238.499L132.745 241.296L141.966 243.329L158.681 247.012L172.046 249.956L176.323 250.899L183.813 238.548L189.336 229.441L197.443 216.065L202.67 207.443L210.964 193.767L216.736 184.248L219.745 179.282L218.893 174.327L218.92 174.316ZM6.70711 224.055L6.6579 223.328C9.57996 222.852 27.6347 222.026 46.9763 221.822C70.7691 221.572 85.9585 222.363 87.9456 223.945C80.1181 222.072 17.6383 223.571 9.56104 223.904C8.1265 223.964 7.25216 224.006 6.71089 224.051M46.9271 223.961C83.4187 223.571 87.6466 224.525 88.0403 224.797L88.0668 224.831L6.81687 225.649L6.76388 224.903C10.0796 224.646 27.4227 224.165 46.9233 223.961M23.9442 226.326L6.88501 226.61L6.87744 226.497L23.9442 226.322V226.326ZM107.019 184.324L107.034 184.342C107.034 184.342 107.007 184.358 106.996 184.369L107.022 184.327L107.019 184.324ZM207.163 155.428C203.31 161.916 176.115 207.704 171.353 215.104C151.977 200.758 133.904 198.748 121.523 199.857C122.004 199.789 122.484 199.725 122.965 199.668C126.86 199.218 130.815 199.085 134.752 199.422C130.849 198.801 126.867 198.646 122.893 198.82C118.919 199.009 114.948 199.596 111.069 200.603C108.972 201.144 106.905 201.814 104.876 202.59C107.662 201.133 110.576 199.895 113.593 198.922C117.284 197.726 121.11 196.916 124.997 196.489C128.881 196.072 132.821 195.97 136.743 196.333C132.859 195.686 128.892 195.501 124.933 195.641C120.974 195.792 117.015 196.333 113.135 197.284C110.932 197.825 108.76 198.502 106.629 199.301C109.505 197.817 112.522 196.576 115.645 195.611C119.335 194.467 123.158 193.703 127.034 193.309C130.906 192.927 134.835 192.855 138.737 193.245C134.873 192.575 130.921 192.355 126.977 192.461C123.033 192.575 119.081 193.067 115.206 193.968C112.912 194.501 110.645 195.179 108.423 195.993C111.375 194.483 114.49 193.256 117.696 192.302C121.387 191.209 125.206 190.493 129.07 190.134C132.935 189.785 136.845 189.744 140.732 190.156C136.883 189.464 132.954 189.214 129.021 189.282C125.088 189.361 121.148 189.804 117.276 190.652C114.91 191.171 112.571 191.837 110.274 192.658C113.283 191.129 116.474 189.933 119.748 188.998C123.438 187.953 127.25 187.283 131.103 186.962C134.956 186.644 138.855 186.636 142.723 187.071C138.892 186.356 134.979 186.076 131.061 186.11C127.144 186.152 123.215 186.549 119.343 187.344C116.913 187.847 114.502 188.495 112.143 189.316C115.202 187.772 118.461 186.613 121.795 185.701C125.486 184.71 129.29 184.081 133.135 183.794C136.977 183.51 140.861 183.532 144.714 183.987C140.902 183.252 137.004 182.938 133.101 182.946C129.199 182.953 125.281 183.305 121.413 184.047C118.926 184.535 116.447 185.164 114.025 185.981C117.132 184.441 120.448 183.286 123.843 182.412C127.533 181.47 131.334 180.887 135.164 180.633C138.995 180.379 142.867 180.432 146.701 180.906C142.908 180.152 139.025 179.808 135.138 179.781C131.25 179.755 127.34 180.062 123.48 180.75C120.91 181.212 118.355 181.837 115.853 182.662C119.028 181.114 122.416 179.956 125.891 179.119C129.581 178.226 133.374 177.688 137.193 177.465C141.016 177.242 144.869 177.325 148.688 177.817C144.914 177.045 141.05 176.674 137.174 176.613C133.298 176.553 129.403 176.818 125.55 177.45C122.889 177.885 120.247 178.506 117.666 179.346C120.921 177.802 124.384 176.625 127.942 175.83C131.633 174.99 135.418 174.49 139.225 174.301C143.037 174.108 146.875 174.221 150.683 174.728C146.924 173.941 143.075 173.54 139.218 173.449C135.357 173.358 131.474 173.574 127.624 174.157C124.861 174.566 122.113 175.194 119.426 176.057C122.772 174.498 126.341 173.332 129.998 172.548C133.684 171.757 137.462 171.299 141.262 171.14C145.062 170.977 148.885 171.117 152.678 171.644C148.938 170.841 145.104 170.413 141.262 170.292C137.416 170.167 133.548 170.345 129.702 170.875C126.841 171.269 123.998 171.89 121.216 172.76C124.645 171.193 128.313 170.046 132.057 169.274C135.743 168.525 139.513 168.116 143.302 167.983C147.091 167.851 150.899 168.021 154.676 168.559C150.952 167.745 147.136 167.287 143.306 167.136C139.475 166.984 135.618 167.113 131.78 167.597C128.817 167.983 125.864 168.593 122.976 169.467C123.135 169.395 123.294 169.32 123.457 169.248C126.841 167.779 130.44 166.727 134.116 166.011C137.795 165.292 141.561 164.929 145.335 164.827C149.112 164.732 152.908 164.921 156.667 165.47C152.958 164.641 149.161 164.164 145.346 163.979C141.531 163.797 137.685 163.877 133.858 164.331C130.785 164.694 127.723 165.288 124.721 166.174C124.982 166.061 125.24 165.943 125.505 165.834C128.896 164.418 132.499 163.426 136.175 162.756C139.85 162.09 143.605 161.746 147.371 161.678C151.137 161.617 154.918 161.818 158.662 162.385C154.968 161.537 151.186 161.053 147.386 160.826C143.582 160.61 139.755 160.671 135.936 161.068C132.753 161.405 129.577 161.98 126.462 162.874C126.822 162.718 127.185 162.563 127.552 162.419C130.955 161.061 134.562 160.126 138.23 159.501C141.905 158.88 145.649 158.574 149.4 158.532C153.154 158.498 156.921 158.714 160.653 159.297C156.977 158.438 153.207 157.934 149.422 157.681C145.634 157.435 141.818 157.461 138.01 157.813C134.729 158.12 131.447 158.672 128.23 159.562C128.684 159.369 129.138 159.183 129.596 159.009C133.01 157.707 136.618 156.829 140.285 156.25C143.953 155.674 147.689 155.402 151.432 155.387C155.176 155.379 158.93 155.614 162.644 156.208C158.983 155.334 155.232 154.815 151.459 154.535C147.685 154.263 143.885 154.251 140.085 154.558C136.705 154.834 133.325 155.357 130.005 156.246C130.546 156.023 131.091 155.803 131.644 155.603C135.066 154.357 138.677 153.536 142.337 153.002C146.001 152.472 149.729 152.234 153.457 152.245C157.189 152.264 160.929 152.514 164.631 153.123C160.986 152.238 157.25 151.7 153.491 151.397C149.733 151.102 145.944 151.057 142.155 151.314C138.669 151.556 135.175 152.056 131.739 152.945C132.382 152.684 133.029 152.434 133.688 152.207C137.121 151.023 140.732 150.254 144.388 149.762C148.048 149.278 151.765 149.073 155.482 149.107C159.203 149.149 162.927 149.414 166.618 150.039C162.988 149.138 159.267 148.589 155.524 148.26C151.781 147.938 148.007 147.858 144.229 148.07C140.634 148.275 137.03 148.748 133.48 149.634C134.222 149.338 134.975 149.062 135.736 148.812C139.176 147.684 142.791 146.973 146.444 146.526C150.1 146.083 153.806 145.913 157.515 145.97C161.22 146.038 164.937 146.318 168.609 146.95C164.994 146.038 161.285 145.474 157.56 145.122C153.832 144.777 150.07 144.664 146.304 144.83C143.631 144.951 140.951 145.216 138.287 145.682C155.32 141.325 183.268 142.601 207.152 155.406M68.4678 199.252C62.9643 197.193 55.9165 195.38 47.4267 194.827C38.1609 194.225 27.1767 195.13 14.6216 198.862C18.9366 196.417 23.808 194.774 28.7853 193.722C31.9307 193.063 35.1442 192.635 38.3728 192.435C41.6053 192.234 44.8604 192.246 48.1042 192.56C44.902 191.962 41.6318 191.666 38.3577 191.583C35.0798 191.504 31.7906 191.648 28.5128 192.045C27.0025 192.227 25.4923 192.465 23.9934 192.76C26.325 191.939 28.7323 191.28 31.1661 190.762C34.3228 190.096 37.5439 189.66 40.7839 189.456C44.0239 189.255 47.2904 189.263 50.5418 189.619C47.3358 188.983 44.0504 188.688 40.765 188.604C37.4758 188.529 34.1752 188.684 30.886 189.085C29.3796 189.271 27.8731 189.509 26.3742 189.808C28.702 188.987 31.1018 188.324 33.5431 187.806C36.7074 187.132 39.9361 186.689 43.1912 186.481C46.4426 186.28 49.7204 186.288 52.9756 186.682C49.7658 186.008 46.4691 185.713 43.1723 185.629C39.8717 185.557 36.5598 185.72 33.263 186.129C31.7566 186.318 30.2501 186.56 28.755 186.859C31.0828 186.038 33.4863 185.372 35.9201 184.85C39.0958 184.168 42.3358 183.718 45.5947 183.506C48.8574 183.302 52.1466 183.309 55.4093 183.744C52.1958 183.029 48.8839 182.734 45.5758 182.658C42.2639 182.59 38.9406 182.76 35.6362 183.177C34.1298 183.366 32.6271 183.612 31.132 183.911C33.4636 183.09 35.8633 182.423 38.2971 181.893C41.4804 181.205 44.7317 180.747 48.002 180.531C51.2723 180.326 54.5728 180.33 57.8431 180.803C54.6258 180.05 51.3026 179.755 47.9831 179.679C44.6598 179.611 41.329 179.793 38.0095 180.217C36.503 180.41 35.0004 180.66 33.5053 180.959C35.8369 180.137 38.2366 179.467 40.6741 178.934C43.8687 178.237 47.1277 177.768 50.4093 177.552C53.6909 177.348 57.0029 177.348 60.2769 177.862C57.0596 177.068 53.7174 176.776 50.3904 176.7C47.0557 176.636 43.7135 176.825 40.3865 177.257C38.88 177.454 37.3812 177.703 35.8861 178.006C38.2176 177.181 40.6174 176.511 43.0549 175.974C46.2571 175.27 49.5274 174.793 52.8204 174.573C56.1096 174.365 59.4366 174.365 62.7145 174.921C59.4934 174.089 56.1399 173.797 52.8014 173.725C49.4555 173.665 46.1019 173.865 42.7673 174.301C41.2646 174.501 39.7619 174.751 38.2706 175.058C40.6022 174.233 43.002 173.559 45.4395 173.018C48.653 172.302 51.9309 171.825 55.2352 171.598C58.5358 171.386 61.8742 171.382 65.1558 171.98C61.9348 171.106 58.5623 170.815 55.2125 170.747C51.8552 170.69 48.4903 170.894 45.1443 171.341C43.6416 171.541 42.1427 171.799 40.6477 172.102C42.9792 171.276 45.3827 170.599 47.8165 170.054C51.0376 169.331 54.3268 168.846 57.6387 168.616C60.9469 168.396 64.3004 168.396 67.5859 169.032C64.3648 168.116 60.9771 167.828 57.616 167.764C54.2473 167.715 50.8711 167.919 47.5175 168.377C46.0149 168.581 44.516 168.839 43.0247 169.145C45.36 168.32 47.7598 167.643 50.1935 167.094C53.426 166.363 56.7228 165.875 60.046 165.64C63.3655 165.417 66.7304 165.413 70.0196 166.095C66.7986 165.137 63.392 164.849 60.0233 164.793C56.6433 164.747 53.2594 164.959 49.8945 165.421C48.3919 165.629 46.893 165.887 45.4017 166.197C47.7371 165.372 50.1368 164.69 52.5706 164.138C55.8143 163.4 59.1225 162.908 62.4533 162.665C65.7804 162.438 69.1604 162.427 72.4534 163.154C69.2323 162.151 65.8107 161.871 62.4306 161.818C59.043 161.776 55.644 161.992 52.2678 162.465C50.7651 162.677 49.27 162.934 47.7787 163.245C50.1141 162.419 52.5138 161.734 54.9476 161.178C58.1989 160.432 61.5184 159.936 64.8606 159.69C68.199 159.463 71.5904 159.437 74.8834 160.213C71.6623 159.16 68.2217 158.896 64.8341 158.843C61.4351 158.808 58.0248 159.028 54.641 159.509C53.1421 159.721 51.647 159.982 50.1595 160.296C52.4949 159.471 54.8946 158.786 57.3246 158.226C60.5873 157.472 63.9143 156.969 67.2679 156.719C70.6139 156.492 74.0242 156.454 77.3172 157.276C74.0999 156.178 70.6404 155.92 67.2414 155.867C63.8311 155.837 60.4094 156.064 57.0142 156.549C55.5153 156.765 54.024 157.03 52.5365 157.34C54.8719 156.515 57.2678 155.826 59.7016 155.262C62.9719 154.501 66.3141 153.994 69.6752 153.74C73.0325 153.513 76.4542 153.46 79.7472 154.331C76.5337 153.184 73.0552 152.942 69.6487 152.889C66.227 152.862 62.794 153.093 59.3912 153.589C57.8961 153.805 56.4048 154.073 54.9211 154.388C57.2564 153.562 59.6524 152.87 62.0824 152.302C65.364 151.537 68.7138 151.023 72.0863 150.761C75.4512 150.531 78.8918 150.466 82.1848 151.386C78.9713 150.19 75.4777 149.959 72.0598 149.91C68.6267 149.887 65.1823 150.126 61.772 150.629C60.2769 150.849 58.7894 151.117 57.3057 151.431C59.641 150.606 62.037 149.914 64.4632 149.342C67.7562 148.574 71.1135 148.048 74.4973 147.783C77.8698 147.552 81.3294 147.472 84.6186 148.445C81.4089 147.2 77.8925 146.984 74.4671 146.935C71.0227 146.916 67.5707 147.166 64.1452 147.669C62.6539 147.892 61.1626 148.161 59.6827 148.475C62.018 147.646 64.4102 146.954 66.8402 146.382C70.1408 145.61 73.5095 145.073 76.9046 144.808C80.2885 144.577 83.7632 144.478 87.0524 145.504C83.8502 144.206 80.3112 144.009 76.8781 143.96C73.4224 143.945 69.9591 144.202 66.526 144.713C65.0347 144.936 63.5472 145.209 62.0672 145.527C64.4026 144.702 66.7948 144.005 69.221 143.426C72.5329 142.646 75.913 142.105 79.3157 141.833C82.7071 141.602 86.2007 141.488 89.4861 142.563C86.2878 141.216 82.7298 141.034 79.2854 140.985C75.8183 140.973 72.3437 141.242 68.8993 141.757C65.6782 142.245 62.4798 142.942 59.3269 143.884C87.1091 132.351 117.734 143.736 125.225 150.076L88.9449 211.587C86.7155 209.445 79.8721 203.529 68.4451 199.252M46.4123 219.695C69.2399 219.449 83.994 220.592 87.5217 222.852C79.2362 219.956 35.4394 221.008 19.5914 221.663C11.1167 222.011 7.87669 222.288 6.59734 222.503L6.54814 221.78C8.95921 221.084 27.0934 219.907 46.4123 219.699M193.878 214.88L174.476 245.482L174.366 245.653L174.165 245.615L135.535 238.363C129.1 237.129 122.666 235.91 116.243 234.612L106.614 232.636C103.529 231.962 100.451 231.357 97.3704 230.535C96.7307 232.825 95.7012 235.138 93.8882 236.841C92.9381 237.723 91.761 238.385 90.493 238.692C89.2288 239.002 87.904 238.999 86.6474 238.768C84.1568 238.321 81.6814 237.193 80.0046 235.206C78.396 233.317 77.5595 230.895 77.4913 228.431L40.1405 229.441L2.48678 230.319L40.1291 228.995L77.7752 227.81L78.0894 227.799V228.132C78.1007 230.512 78.9221 232.977 80.4967 234.786C82.0637 236.629 84.3877 237.685 86.7685 238.101C87.957 238.313 89.1758 238.306 90.3264 238.022C91.4771 237.734 92.5331 237.133 93.4037 236.323C95.1486 234.665 96.1403 232.356 96.7534 229.983L96.8443 229.631L97.219 229.729C100.342 230.562 103.582 231.182 106.776 231.868L116.405 233.802L135.683 237.606L174.078 244.994L193.507 214.649L213.163 184.206L193.878 214.884V214.88ZM209.779 157.484L172.905 219.638L172.428 219.172L209.597 156.132L209.926 155.576L210.657 156.011L209.783 157.487L209.779 157.484ZM210.119 158.123L210.846 158.562L210.445 159.225L210.093 159.804L172.364 222.246L172.492 221.572L209.911 158.472L210.116 158.123H210.119ZM210.312 160.675L211.035 161.117L210.411 162.139L172.14 224.706L172.015 224.305L210.229 160.811L210.312 160.678V160.675ZM210.926 165.921L211.422 166.231L211.051 166.825L171.694 229.631L171.569 229.07L210.702 165.781L210.929 165.921H210.926ZM211.289 168.578L211.615 168.782L211.372 169.168L171.47 232.087V231.546L210.899 168.328L211.293 168.578H211.289ZM211.088 170.879L211.649 171.239L211.804 171.337L211.686 171.519L171.239 234.547L171.077 234.002L171.069 233.98L171.077 233.964L211.085 170.879H211.088Z" fill="white"/>
<path d="M348.696 261H260.12V78.728H302.616V233.352H348.696V261ZM397.11 261H354.614V78.728H397.11V261ZM450.128 178.824V234.888C472.912 236.936 472.656 223.88 472.656 204.936C472.656 179.08 468.048 178.824 450.128 178.824ZM407.632 261V78.728H450.64C486.736 78.728 515.152 79.24 515.152 123.016C515.152 143.24 509.264 161.416 484.944 163.72V165.512C512.08 165.512 515.152 185.48 515.152 209.032C515.152 259.208 495.696 261 450.64 261H407.632ZM450.128 104.84V152.712C463.44 151.944 472.656 156.296 472.656 128.904C472.656 110.984 471.12 103.56 450.128 104.84ZM560.174 105.352V261H526.126V78.728H588.59L606.51 208.264H607.022L624.942 78.728H686.126V261H647.726V105.352H647.214L622.638 261H585.262L560.686 105.352H560.174ZM741.676 188.552H757.036L749.612 107.4H749.1L741.676 188.552ZM725.292 78.728H783.66L807.212 261H764.972L760.108 216.2H737.068L730.156 261H694.316L725.292 78.728ZM814.346 261V78.728H873.226L900.362 211.336H900.874V78.728H934.154V261H879.626L848.138 108.68H847.626V261H814.346Z" fill="white"/>
</svg>
